<svg id="visual" viewBox="0 0 900 600" width="900" height="600" xmlns="http://www.w3.org/2000/svg" xmlns:xlink="http://www.w3.org/1999/xlink" version="1.1">
<rect x="0" y="0" width="900" height="600" fill="#272727">
    </rect>
    <path d="M0 434L21.5 425.7C43 417.3 86 400.7 128.8 393.3C171.7 386 214.3 388 257.2 395.8C300 403.7 343 417.3 385.8 412.2C428.7 407 471.3 383 514.2 371.2C557 359.3 600 359.7 642.8 363.3C685.7 367 728.3 374 771.2 388C814 402 857 423 878.5 433.5L900 444L900 601L878.5 601C857 601 814 601 771.2 601C728.3 601 685.7 601 642.8 601C600 601 557 601 514.2 601C471.3 601 428.7 601 385.8 601C343 601 300 601 257.2 601C214.3 601 171.7 601 128.8 601C86 601 43 601 21.5 601L0 601Z" fill="#a6fdff"></path><path d="M0 443L21.5 448.7C43 454.3 86 465.7 128.8 468.3C171.7 471 214.3 465 257.2 452.7C300 440.3 343 421.7 385.8 416.2C428.7 410.7 471.3 418.3 514.2 424.5C557 430.7 600 435.3 642.8 436.3C685.7 437.3 728.3 434.7 771.2 435.3C814 436 857 440 878.5 442L900 444L900 601L878.5 601C857 601 814 601 771.2 601C728.3 601 685.7 601 642.8 601C600 601 557 601 514.2 601C471.3 601 428.7 601 385.8 601C343 601 300 601 257.2 601C214.3 601 171.7 601 128.8 601C86 601 43 601 21.5 601L0 601Z" fill="#7fd3da"></path><path d="M0 489L21.5 489.3C43 489.7 86 490.3 128.8 490.7C171.7 491 214.3 491 257.2 486C300 481 343 471 385.8 471.5C428.7 472 471.3 483 514.2 486.7C557 490.3 600 486.7 642.8 481.8C685.7 477 728.3 471 771.2 473.8C814 476.7 857 488.3 878.5 494.2L900 500L900 601L878.5 601C857 601 814 601 771.2 601C728.3 601 685.7 601 642.8 601C600 601 557 601 514.2 601C471.3 601 428.7 601 385.8 601C343 601 300 601 257.2 601C214.3 601 171.7 601 128.8 601C86 601 43 601 21.5 601L0 601Z" fill="#5aaab5"></path><path d="M0 512L21.5 511.5C43 511 86 510 128.8 514.3C171.7 518.7 214.3 528.3 257.2 532C300 535.7 343 533.3 385.8 533C428.7 532.7 471.3 534.3 514.2 529.2C557 524 600 512 642.8 503.2C685.7 494.3 728.3 488.7 771.2 493.3C814 498 857 513 878.5 520.5L900 528L900 601L878.5 601C857 601 814 601 771.2 601C728.3 601 685.7 601 642.8 601C600 601 557 601 514.2 601C471.3 601 428.7 601 385.8 601C343 601 300 601 257.2 601C214.3 601 171.7 601 128.8 601C86 601 43 601 21.5 601L0 601Z" fill="#358291"></path><path d="M0 548L21.5 552C43 556 86 564 128.8 561.7C171.7 559.3 214.3 546.7 257.2 543.5C300 540.3 343 546.7 385.8 552.3C428.7 558 471.3 563 514.2 565.5C557 568 600 568 642.8 568.5C685.7 569 728.3 570 771.2 565.8C814 561.7 857 552.3 878.5 547.7L900 543L900 601L878.5 601C857 601 814 601 771.2 601C728.3 601 685.7 601 642.8 601C600 601 557 601 514.2 601C471.3 601 428.7 601 385.8 601C343 601 300 601 257.2 601C214.3 601 171.7 601 128.8 601C86 601 43 601 21.5 601L0 601Z" fill="#065d6e">
        </path>
        </svg>