<svg id="visual" viewBox="0 0 1920 1080" width="100%" height="100%" version="1.1"><rect x="0" y="0" width="1920" height="1080" fill="#1f2033"></rect><defs><linearGradient id="grad1_0" x1="43.8%" y1="0%" x2="100%" y2="100%"><stop offset="14.444444444444446%" stop-color="#aeb4d7" stop-opacity="1"></stop><stop offset="85.55555555555554%" stop-color="#aeb4d7" stop-opacity="1"></stop></linearGradient></defs><defs><linearGradient id="grad1_1" x1="43.8%" y1="0%" x2="100%" y2="100%"><stop offset="14.444444444444446%" stop-color="#aeb4d7" stop-opacity="1"></stop><stop offset="85.55555555555554%" stop-color="#989dbd" stop-opacity="1"></stop></linearGradient></defs><defs><linearGradient id="grad1_2" x1="43.8%" y1="0%" x2="100%" y2="100%"><stop offset="14.444444444444446%" stop-color="#8286a4" stop-opacity="1"></stop><stop offset="85.55555555555554%" stop-color="#989dbd" stop-opacity="1"></stop></linearGradient></defs><defs><linearGradient id="grad1_3" x1="43.8%" y1="0%" x2="100%" y2="100%"><stop offset="14.444444444444446%" stop-color="#8286a4" stop-opacity="1"></stop><stop offset="85.55555555555554%" stop-color="#6d708c" stop-opacity="1"></stop></linearGradient></defs><defs><linearGradient id="grad1_4" x1="43.8%" y1="0%" x2="100%" y2="100%"><stop offset="14.444444444444446%" stop-color="#585a74" stop-opacity="1"></stop><stop offset="85.55555555555554%" stop-color="#6d708c" stop-opacity="1"></stop></linearGradient></defs><defs><linearGradient id="grad1_5" x1="43.8%" y1="0%" x2="100%" y2="100%"><stop offset="14.444444444444446%" stop-color="#585a74" stop-opacity="1"></stop><stop offset="85.55555555555554%" stop-color="#44465e" stop-opacity="1"></stop></linearGradient></defs><defs><linearGradient id="grad1_6" x1="43.8%" y1="0%" x2="100%" y2="100%"><stop offset="14.444444444444446%" stop-color="#313248" stop-opacity="1"></stop><stop offset="85.55555555555554%" stop-color="#44465e" stop-opacity="1"></stop></linearGradient></defs><defs><linearGradient id="grad1_7" x1="43.8%" y1="0%" x2="100%" y2="100%"><stop offset="14.444444444444446%" stop-color="#313248" stop-opacity="1"></stop><stop offset="85.55555555555554%" stop-color="#1f2033" stop-opacity="1"></stop></linearGradient></defs><defs><linearGradient id="grad2_0" x1="0%" y1="0%" x2="56.3%" y2="100%"><stop offset="14.444444444444446%" stop-color="#aeb4d7" stop-opacity="1"></stop><stop offset="85.55555555555554%" stop-color="#aeb4d7" stop-opacity="1"></stop></linearGradient></defs><defs><linearGradient id="grad2_1" x1="0%" y1="0%" x2="56.3%" y2="100%"><stop offset="14.444444444444446%" stop-color="#989dbd" stop-opacity="1"></stop><stop offset="85.55555555555554%" stop-color="#aeb4d7" stop-opacity="1"></stop></linearGradient></defs><defs><linearGradient id="grad2_2" x1="0%" y1="0%" x2="56.3%" y2="100%"><stop offset="14.444444444444446%" stop-color="#989dbd" stop-opacity="1"></stop><stop offset="85.55555555555554%" stop-color="#8286a4" stop-opacity="1"></stop></linearGradient></defs><defs><linearGradient id="grad2_3" x1="0%" y1="0%" x2="56.3%" y2="100%"><stop offset="14.444444444444446%" stop-color="#6d708c" stop-opacity="1"></stop><stop offset="85.55555555555554%" stop-color="#8286a4" stop-opacity="1"></stop></linearGradient></defs><defs><linearGradient id="grad2_4" x1="0%" y1="0%" x2="56.3%" y2="100%"><stop offset="14.444444444444446%" stop-color="#6d708c" stop-opacity="1"></stop><stop offset="85.55555555555554%" stop-color="#585a74" stop-opacity="1"></stop></linearGradient></defs><defs><linearGradient id="grad2_5" x1="0%" y1="0%" x2="56.3%" y2="100%"><stop offset="14.444444444444446%" stop-color="#44465e" stop-opacity="1"></stop><stop offset="85.55555555555554%" stop-color="#585a74" stop-opacity="1"></stop></linearGradient></defs><defs><linearGradient id="grad2_6" x1="0%" y1="0%" x2="56.3%" y2="100%"><stop offset="14.444444444444446%" stop-color="#44465e" stop-opacity="1"></stop><stop offset="85.55555555555554%" stop-color="#313248" stop-opacity="1"></stop></linearGradient></defs><defs><linearGradient id="grad2_7" x1="0%" y1="0%" x2="56.3%" y2="100%"><stop offset="14.444444444444446%" stop-color="#1f2033" stop-opacity="1"></stop><stop offset="85.55555555555554%" stop-color="#313248" stop-opacity="1"></stop></linearGradient></defs><g transform="translate(1920, 0)"><path d="M0 972C-86 967.1 -172 962.1 -251.6 938.9C-331.2 915.6 -404.4 874.1 -479.5 830.5C-554.6 787 -631.5 741.4 -672.5 672.5C-713.4 603.5 -718.5 511.2 -762.1 440C-805.7 368.8 -887.8 318.8 -929.2 249C-970.6 179.2 -971.3 89.6 -972 0L0 0Z" fill="#28293d"></path><path d="M0 850.5C-75.2 846.2 -150.5 841.9 -220.1 821.5C-289.8 801.2 -353.9 764.8 -419.6 726.7C-485.3 688.6 -552.5 648.7 -588.4 588.4C-624.3 528.1 -628.7 447.3 -666.8 385C-705 322.7 -776.8 278.9 -813.1 217.9C-849.3 156.8 -849.9 78.4 -850.5 0L0 0Z" fill="#3b3c53"></path><path d="M0 729C-64.5 725.3 -129 721.6 -188.7 704.2C-248.4 686.7 -303.3 655.6 -359.6 622.9C-415.9 590.2 -473.6 556.1 -504.3 504.3C-535.1 452.6 -538.9 383.4 -571.6 330C-604.3 276.6 -665.9 239.1 -696.9 186.7C-728 134.4 -728.5 67.2 -729 0L0 0Z" fill="#4e5069"></path><path d="M0 607.5C-53.7 604.4 -107.5 601.3 -157.2 586.8C-207 572.3 -252.8 546.3 -299.7 519.1C-346.6 491.9 -394.7 463.4 -420.3 420.3C-445.9 377.2 -449.1 319.5 -476.3 275C-503.6 230.5 -554.9 199.2 -580.8 155.6C-606.6 112 -607.1 56 -607.5 0L0 0Z" fill="#626580"></path><path d="M0 486C-43 483.5 -86 481.1 -125.8 469.4C-165.6 457.8 -202.2 437 -239.7 415.3C-277.3 393.5 -315.7 370.7 -336.2 336.2C-356.7 301.8 -359.3 255.6 -381.1 220C-402.8 184.4 -443.9 159.4 -464.6 124.5C-485.3 89.6 -485.7 44.8 -486 0L0 0Z" fill="#777b98"></path><path d="M0 364.5C-32.2 362.6 -64.5 360.8 -94.3 352.1C-124.2 343.4 -151.7 327.8 -179.8 311.4C-208 295.1 -236.8 278 -252.2 252.2C-267.5 226.3 -269.4 191.7 -285.8 165C-302.1 138.3 -332.9 119.5 -348.5 93.4C-364 67.2 -364.2 33.6 -364.5 0L0 0Z" fill="#8d91b1"></path><path d="M0 243C-21.5 241.8 -43 240.5 -62.9 234.7C-82.8 228.9 -101.1 218.5 -119.9 207.6C-138.6 196.7 -157.9 185.4 -168.1 168.1C-178.4 150.9 -179.6 127.8 -190.5 110C-201.4 92.2 -222 79.7 -232.3 62.2C-242.7 44.8 -242.8 22.4 -243 0L0 0Z" fill="#a3a8ca"></path><path d="M0 121.5C-10.7 120.9 -21.5 120.3 -31.4 117.4C-41.4 114.5 -50.6 109.3 -59.9 103.8C-69.3 98.4 -78.9 92.7 -84.1 84.1C-89.2 75.4 -89.8 63.9 -95.3 55C-100.7 46.1 -111 39.8 -116.2 31.1C-121.3 22.4 -121.4 11.2 -121.5 0L0 0Z" fill="#aeb4d7"></path></g><g transform="translate(0, 1080)"><path d="M0 -972C91.5 -979.2 183.1 -986.3 251.6 -938.9C320.1 -891.5 365.5 -789.4 418.5 -724.9C471.5 -660.3 532 -633.1 591.1 -591.1C650.3 -549.2 707.9 -492.3 741.3 -428C774.7 -363.7 783.7 -291.8 818.1 -219.2C852.5 -146.6 912.3 -73.3 972 0L0 0Z" fill="#28293d"></path><path d="M0 -850.5C80.1 -856.8 160.2 -863 220.1 -821.5C280.1 -780 319.8 -690.8 366.2 -634.3C412.6 -577.7 465.5 -554 517.2 -517.2C569 -480.5 619.5 -430.8 648.7 -374.5C677.9 -318.2 685.8 -255.3 715.9 -191.8C746 -128.3 798.2 -64.2 850.5 0L0 0Z" fill="#3b3c53"></path><path d="M0 -729C68.7 -734.4 137.3 -739.7 188.7 -704.2C240 -668.6 274.1 -592.1 313.9 -543.6C353.6 -495.2 399 -474.8 443.4 -443.4C487.7 -411.9 531 -369.3 556 -321C581 -272.7 587.8 -218.9 613.6 -164.4C639.4 -110 684.2 -55 729 0L0 0Z" fill="#4e5069"></path><path d="M0 -607.5C57.2 -612 114.4 -616.4 157.2 -586.8C200 -557.2 228.4 -493.4 261.6 -453C294.7 -412.7 332.5 -395.7 369.5 -369.5C406.4 -343.2 442.5 -307.7 463.3 -267.5C484.2 -227.3 489.8 -182.4 511.3 -137C532.8 -91.6 570.2 -45.8 607.5 0L0 0Z" fill="#626580"></path><path d="M0 -486C45.8 -489.6 91.5 -493.2 125.8 -469.4C160 -445.7 182.8 -394.7 209.2 -362.4C235.7 -330.1 266 -316.6 295.6 -295.6C325.1 -274.6 354 -246.2 370.7 -214C387.3 -181.8 391.9 -145.9 409.1 -109.6C426.3 -73.3 456.1 -36.7 486 0L0 0Z" fill="#777b98"></path><path d="M0 -364.5C34.3 -367.2 68.7 -369.9 94.3 -352.1C120 -334.3 137.1 -296 156.9 -271.8C176.8 -247.6 199.5 -237.4 221.7 -221.7C243.8 -205.9 265.5 -184.6 278 -160.5C290.5 -136.4 293.9 -109.4 306.8 -82.2C319.7 -55 342.1 -27.5 364.5 0L0 0Z" fill="#8d91b1"></path><path d="M0 -243C22.9 -244.8 45.8 -246.6 62.9 -234.7C80 -222.9 91.4 -197.4 104.6 -181.2C117.9 -165.1 133 -158.3 147.8 -147.8C162.6 -137.3 177 -123.1 185.3 -107C193.7 -90.9 195.9 -73 204.5 -54.8C213.1 -36.7 228.1 -18.3 243 0L0 0Z" fill="#a3a8ca"></path><path d="M0 -121.5C11.4 -122.4 22.9 -123.3 31.4 -117.4C40 -111.4 45.7 -98.7 52.3 -90.6C58.9 -82.5 66.5 -79.1 73.9 -73.9C81.3 -68.6 88.5 -61.5 92.7 -53.5C96.8 -45.5 98 -36.5 102.3 -27.4C106.6 -18.3 114 -9.2 121.5 0L0 0Z" fill="#aeb4d7"></path></g></svg>