<svg id="visual" viewBox="0 0 1920 1080" width="100%" height="100%" version="1.1"><rect x="0" y="0" width="1920" height="1080" fill="#1f2033"></rect>
<defs>
    <linearGradient id="grad1_0" x1="43.8%" y1="0%" x2="100%" y2="100%"><stop offset="14.444444444444446%" stop-color="#aeb4d7" stop-opacity="1"></stop>
    <stop offset="85.55555555555554%" stop-color="#aeb4d7" stop-opacity="1"></stop></linearGradient></defs>
    <defs>
        <linearGradient id="grad1_1" x1="43.8%" y1="0%" x2="100%" y2="100%"><stop offset="14.444444444444446%" stop-color="#aeb4d7" stop-opacity="1"></stop>
        <stop offset="85.55555555555554%" stop-color="#989dbd" stop-opacity="1"></stop>
        </linearGradient></defs>
        <defs>
            <linearGradient id="grad1_2" x1="43.8%" y1="0%" x2="100%" y2="100%"><stop offset="14.444444444444446%" stop-color="#8286a4" stop-opacity="1">
                </stop>
                <stop offset="85.55555555555554%" stop-color="#989dbd" stop-opacity="1"></stop></linearGradient></defs>
                <defs><linearGradient id="grad1_3" x1="43.8%" y1="0%" x2="100%" y2="100%"><stop offset="14.444444444444446%" stop-color="#8286a4" stop-opacity="1"></stop>
                <stop offset="85.55555555555554%" stop-color="#6d708c" stop-opacity="1"></stop></linearGradient></defs><defs>
                    <linearGradient id="grad1_4" x1="43.8%" y1="0%" x2="100%" y2="100%"><stop offset="14.444444444444446%" stop-color="#585a74" stop-opacity="1"></stop>
                    <stop offset="85.55555555555554%" stop-color="#6d708c" stop-opacity="1"></stop></linearGradient></defs><defs>
                        <linearGradient id="grad1_5" x1="43.8%" y1="0%" x2="100%" y2="100%"><stop offset="14.444444444444446%" stop-color="#585a74" stop-opacity="1"></stop>
                        <stop offset="85.55555555555554%" stop-color="#44465e" stop-opacity="1"></stop></linearGradient></defs><defs>
                            <linearGradient id="grad1_6" x1="43.8%" y1="0%" x2="100%" y2="100%"><stop offset="14.444444444444446%" stop-color="#313248" stop-opacity="1"></stop>
                            <stop offset="85.55555555555554%" stop-color="#44465e" stop-opacity="1"></stop></linearGradient></defs><defs>
                                <linearGradient id="grad1_7" x1="43.8%" y1="0%" x2="100%" y2="100%"><stop offset="14.444444444444446%" stop-color="#313248" stop-opacity="1"></stop>
                                <stop offset="85.55555555555554%" stop-color="#1f2033" stop-opacity="1"></stop></linearGradient></defs><defs>
                                    <linearGradient id="grad2_0" x1="0%" y1="0%" x2="56.3%" y2="100%"><stop offset="14.444444444444446%" stop-color="#aeb4d7" stop-opacity="1"></stop>
                                    <stop offset="85.55555555555554%" stop-color="#aeb4d7" stop-opacity="1"></stop></linearGradient></defs><defs>
                                        <linearGradient id="grad2_1" x1="0%" y1="0%" x2="56.3%" y2="100%"><stop offset="14.444444444444446%" stop-color="#989dbd" stop-opacity="1"></stop>
                                        <stop offset="85.55555555555554%" stop-color="#aeb4d7" stop-opacity="1"></stop></linearGradient></defs><defs>
                                            <linearGradient id="grad2_2" x1="0%" y1="0%" x2="56.3%" y2="100%"><stop offset="14.444444444444446%" stop-color="#989dbd" stop-opacity="1"></stop>
                                            <stop offset="85.55555555555554%" stop-color="#8286a4" stop-opacity="1"></stop></linearGradient></defs><defs>
                                                <linearGradient id="grad2_3" x1="0%" y1="0%" x2="56.3%" y2="100%"><stop offset="14.444444444444446%" stop-color="#6d708c" stop-opacity="1"></stop>
                                                <stop offset="85.55555555555554%" stop-color="#8286a4" stop-opacity="1"></stop></linearGradient></defs><defs><linearGradient id="grad2_4" x1="0%" y1="0%" x2="56.3%" y2="100%"><stop offset="14.444444444444446%" stop-color="#6d708c" stop-opacity="1"></stop>
                                                <stop offset="85.55555555555554%" stop-color="#585a74" stop-opacity="1"></stop></linearGradient></defs><defs>
                                                    <linearGradient id="grad2_5" x1="0%" y1="0%" x2="56.3%" y2="100%"><stop offset="14.444444444444446%" stop-color="#44465e" stop-opacity="1"></stop><stop offset="85.55555555555554%" stop-color="#585a74" stop-opacity="1"></stop></linearGradient></defs><defs><linearGradient id="grad2_6" x1="0%" y1="0%" x2="56.3%" y2="100%"><stop offset="14.444444444444446%" stop-color="#44465e" stop-opacity="1"></stop><stop offset="85.55555555555554%" stop-color="#313248" stop-opacity="1"></stop></linearGradient></defs><defs><linearGradient id="grad2_7" x1="0%" y1="0%" x2="56.3%" y2="100%"><stop offset="14.444444444444446%" stop-color="#1f2033" stop-opacity="1"></stop><stop offset="85.55555555555554%" stop-color="#313248" stop-opacity="1"></stop></linearGradient></defs><g transform="translate(1920, 0)"><path d="M0 972C-77.1 942.6 -154.2 913.3 -241.2 900.2C-328.3 887.2 -425.3 890.5 -485 840C-544.7 789.6 -567.2 685.5 -619.4 619.4C-671.7 553.3 -753.8 525.2 -814.9 470.5C-876.1 415.8 -916.2 334.4 -938.9 251.6C-961.6 168.7 -966.8 84.4 -972 0L0 0Z" fill="#28293d"></path><path d="M0 850.5C-67.4 824.8 -134.9 799.1 -211.1 787.7C-287.2 776.3 -372.1 779.2 -424.4 735C-476.6 690.9 -496.3 599.8 -542 542C-587.7 484.2 -659.6 459.6 -713.1 411.7C-766.5 363.8 -801.7 292.6 -821.5 220.1C-841.4 147.6 -845.9 73.8 -850.5 0L0 0Z" fill="#3b3c53"></path><path d="M0 729C-57.8 707 -115.6 685 -180.9 675.2C-246.2 665.4 -319 667.8 -363.7 630C-408.5 592.2 -425.4 514.1 -464.6 464.6C-503.8 415 -565.4 393.9 -611.2 352.9C-657 311.8 -687.1 250.8 -704.2 188.7C-721.2 126.5 -725.1 63.3 -729 0L0 0Z" fill="#4e5069"></path><path d="M0 607.5C-48.2 589.2 -96.4 570.8 -150.8 562.7C-205.2 554.5 -265.8 556.5 -303.1 525C-340.5 493.5 -354.5 428.5 -387.1 387.1C-419.8 345.8 -471.1 328.3 -509.3 294.1C-547.5 259.9 -572.6 209 -586.8 157.2C-601 105.4 -604.2 52.7 -607.5 0L0 0Z" fill="#626580"></path><path d="M0 486C-38.5 471.3 -77.1 456.6 -120.6 450.1C-164.1 443.6 -212.6 445.2 -242.5 420C-272.4 394.8 -283.6 342.8 -309.7 309.7C-335.8 276.7 -376.9 262.6 -407.5 235.3C-438 207.9 -458.1 167.2 -469.4 125.8C-480.8 84.4 -483.4 42.2 -486 0L0 0Z" fill="#777b98"></path><path d="M0 364.5C-28.9 353.5 -57.8 342.5 -90.5 337.6C-123.1 332.7 -159.5 333.9 -181.9 315C-204.3 296.1 -212.7 257.1 -232.3 232.3C-251.9 207.5 -282.7 197 -305.6 176.4C-328.5 155.9 -343.6 125.4 -352.1 94.3C-360.6 63.3 -362.5 31.6 -364.5 0L0 0Z" fill="#8d91b1"></path><path d="M0 243C-19.3 235.7 -38.5 228.3 -60.3 225.1C-82.1 221.8 -106.3 222.6 -121.2 210C-136.2 197.4 -141.8 171.4 -154.9 154.9C-167.9 138.3 -188.5 131.3 -203.7 117.6C-219 103.9 -229 83.6 -234.7 62.9C-240.4 42.2 -241.7 21.1 -243 0L0 0Z" fill="#a3a8ca"></path><path d="M0 121.5C-9.6 117.8 -19.3 114.2 -30.2 112.5C-41 110.9 -53.2 111.3 -60.6 105C-68.1 98.7 -70.9 85.7 -77.4 77.4C-84 69.2 -94.2 65.7 -101.9 58.8C-109.5 52 -114.5 41.8 -117.4 31.4C-120.2 21.1 -120.8 10.5 -121.5 0L0 0Z" fill="#aeb4d7"></path></g><g transform="translate(0, 1080)"><path d="M0 -972C78.2 -928.1 156.4 -884.2 225.7 -842.3C295 -800.4 355.3 -760.4 418 -724C480.7 -687.6 545.9 -654.7 616.6 -616.6C687.3 -578.5 763.6 -535.2 821 -474C878.4 -412.8 916.9 -333.6 938.9 -251.6C960.9 -169.6 966.4 -84.8 972 0L0 0Z" fill="#28293d"></path><path d="M0 -850.5C68.4 -812.1 136.9 -773.7 197.5 -737C258.1 -700.3 310.9 -665.4 365.7 -633.5C420.6 -601.6 477.6 -572.8 539.5 -539.5C601.4 -506.2 668.2 -468.3 718.4 -414.8C768.6 -361.2 802.3 -291.9 821.5 -220.1C840.8 -148.4 845.6 -74.2 850.5 0L0 0Z" fill="#3b3c53"></path><path d="M0 -729C58.7 -696.1 117.3 -663.2 169.3 -631.7C221.2 -600.3 266.5 -570.3 313.5 -543C360.5 -515.7 409.4 -491 462.4 -462.4C515.5 -433.9 572.7 -401.4 615.7 -355.5C658.8 -309.6 687.6 -250.2 704.2 -188.7C720.7 -127.2 724.8 -63.6 729 0L0 0Z" fill="#4e5069"></path><path d="M0 -607.5C48.9 -580.1 97.8 -552.6 141.1 -526.4C184.3 -500.2 222 -475.3 261.2 -452.5C300.5 -429.7 341.2 -409.2 385.4 -385.4C429.6 -361.6 477.3 -334.5 513.1 -296.3C549 -258 573 -208.5 586.8 -157.2C600.6 -106 604 -53 607.5 0L0 0Z" fill="#626580"></path><path d="M0 -486C39.1 -464.1 78.2 -442.1 112.8 -421.1C147.5 -400.2 177.6 -380.2 209 -362C240.4 -343.8 272.9 -327.3 308.3 -308.3C343.7 -289.3 381.8 -267.6 410.5 -237C439.2 -206.4 458.4 -166.8 469.4 -125.8C480.4 -84.8 483.2 -42.4 486 0L0 0Z" fill="#777b98"></path><path d="M0 -364.5C29.3 -348 58.7 -331.6 84.6 -315.9C110.6 -300.1 133.2 -285.2 156.7 -271.5C180.3 -257.8 204.7 -245.5 231.2 -231.2C257.7 -216.9 286.4 -200.7 307.9 -177.8C329.4 -154.8 343.8 -125.1 352.1 -94.3C360.3 -63.6 362.4 -31.8 364.5 0L0 0Z" fill="#8d91b1"></path><path d="M0 -243C19.6 -232 39.1 -221.1 56.4 -210.6C73.7 -200.1 88.8 -190.1 104.5 -181C120.2 -171.9 136.5 -163.7 154.1 -154.1C171.8 -144.6 190.9 -133.8 205.2 -118.5C219.6 -103.2 229.2 -83.4 234.7 -62.9C240.2 -42.4 241.6 -21.2 243 0L0 0Z" fill="#a3a8ca"></path><path d="M0 -121.5C9.8 -116 19.6 -110.5 28.2 -105.3C36.9 -100 44.4 -95.1 52.2 -90.5C60.1 -85.9 68.2 -81.8 77.1 -77.1C85.9 -72.3 95.5 -66.9 102.6 -59.3C109.8 -51.6 114.6 -41.7 117.4 -31.4C120.1 -21.2 120.8 -10.6 121.5 0L0 0Z" fill="#aeb4d7"></path></g></svg>