<svg id="visual" viewBox="0 0 1920 1080" width="1920" height="1080" xmlns="http://www.w3.org/2000/svg" xmlns:xlink="http://www.w3.org/1999/xlink" version="1.1">
    <rect x="0" y="0" width="1920" height="1080" fill="#1f2033"></rect>
    <path d="M0 606L29.2 627.8C58.3 649.7 116.7 693.3 174.8 693.2C233 693 291 649 349.2 651.8C407.3 654.7 465.7 704.3 523.8 730.8C582 757.3 640 760.7 698.2 738.7C756.3 716.7 814.7 669.3 872.8 654.5C931 639.7 989 657.3 1047.2 668.8C1105.3 680.3 1163.7 685.7 1221.8 693.8C1280 702 1338 713 1396.2 711.2C1454.3 709.3 1512.7 694.7 1570.8 699.2C1629 703.7 1687 727.3 1745.2 740C1803.3 752.7 1861.7 754.3 1890.8 755.2L1920 756L1920 1081L1890.8 1081C1861.7 1081 1803.3 1081 1745.2 1081C1687 1081 1629 1081 1570.8 1081C1512.7 1081 1454.3 1081 1396.2 1081C1338 1081 1280 1081 1221.8 1081C1163.7 1081 1105.3 1081 1047.2 1081C989 1081 931 1081 872.8 1081C814.7 1081 756.3 1081 698.2 1081C640 1081 582 1081 523.8 1081C465.7 1081 407.3 1081 349.2 1081C291 1081 233 1081 174.8 1081C116.7 1081 58.3 1081 29.2 1081L0 1081Z" fill="#aeb4d7"></path>
    <path d="M0 810L29.2 798.7C58.3 787.3 116.7 764.7 174.8 758.5C233 752.3 291 762.7 349.2 758.7C407.3 754.7 465.7 736.3 523.8 722C582 707.7 640 697.3 698.2 688.2C756.3 679 814.7 671 872.8 673.5C931 676 989 689 1047.2 698.8C1105.3 708.7 1163.7 715.3 1221.8 709.3C1280 703.3 1338 684.7 1396.2 684.5C1454.3 684.3 1512.7 702.7 1570.8 720.3C1629 738 1687 755 1745.2 758.7C1803.3 762.3 1861.7 752.7 1890.8 747.8L1920 743L1920 1081L1890.8 1081C1861.7 1081 1803.3 1081 1745.2 1081C1687 1081 1629 1081 1570.8 1081C1512.7 1081 1454.3 1081 1396.2 1081C1338 1081 1280 1081 1221.8 1081C1163.7 1081 1105.3 1081 1047.2 1081C989 1081 931 1081 872.8 1081C814.7 1081 756.3 1081 698.2 1081C640 1081 582 1081 523.8 1081C465.7 1081 407.3 1081 349.2 1081C291 1081 233 1081 174.8 1081C116.7 1081 58.3 1081 29.2 1081L0 1081Z" fill="#989dbd"></path>
    <path d="M0 757L29.2 768.2C58.3 779.3 116.7 801.7 174.8 794.7C233 787.7 291 751.3 349.2 753C407.3 754.7 465.7 794.3 523.8 804.8C582 815.3 640 796.7 698.2 787.3C756.3 778 814.7 778 872.8 775.2C931 772.3 989 766.7 1047.2 772.7C1105.3 778.7 1163.7 796.3 1221.8 796C1280 795.7 1338 777.3 1396.2 768.8C1454.3 760.3 1512.7 761.7 1570.8 763.7C1629 765.7 1687 768.3 1745.2 766.2C1803.3 764 1861.7 757 1890.8 753.5L1920 750L1920 1081L1890.8 1081C1861.7 1081 1803.3 1081 1745.2 1081C1687 1081 1629 1081 1570.8 1081C1512.7 1081 1454.3 1081 1396.2 1081C1338 1081 1280 1081 1221.8 1081C1163.7 1081 1105.3 1081 1047.2 1081C989 1081 931 1081 872.8 1081C814.7 1081 756.3 1081 698.2 1081C640 1081 582 1081 523.8 1081C465.7 1081 407.3 1081 349.2 1081C291 1081 233 1081 174.8 1081C116.7 1081 58.3 1081 29.2 1081L0 1081Z" fill="#8286a4"></path>
    <path d="M0 782L29.2 785.8C58.3 789.7 116.7 797.3 174.8 803.5C233 809.7 291 814.3 349.2 824.3C407.3 834.3 465.7 849.7 523.8 847.7C582 845.7 640 826.3 698.2 823C756.3 819.7 814.7 832.3 872.8 837.8C931 843.3 989 841.7 1047.2 841.8C1105.3 842 1163.7 844 1221.8 846.5C1280 849 1338 852 1396.2 853.8C1454.3 855.7 1512.7 856.3 1570.8 850.8C1629 845.3 1687 833.7 1745.2 834C1803.3 834.3 1861.7 846.7 1890.8 852.8L1920 859L1920 1081L1890.8 1081C1861.7 1081 1803.3 1081 1745.2 1081C1687 1081 1629 1081 1570.8 1081C1512.7 1081 1454.3 1081 1396.2 1081C1338 1081 1280 1081 1221.8 1081C1163.7 1081 1105.3 1081 1047.2 1081C989 1081 931 1081 872.8 1081C814.7 1081 756.3 1081 698.2 1081C640 1081 582 1081 523.8 1081C465.7 1081 407.3 1081 349.2 1081C291 1081 233 1081 174.8 1081C116.7 1081 58.3 1081 29.2 1081L0 1081Z" fill="#6c708c"></path>
    <path d="M0 867L29.2 862.7C58.3 858.3 116.7 849.7 174.8 849.3C233 849 291 857 349.2 860.5C407.3 864 465.7 863 523.8 866.7C582 870.3 640 878.7 698.2 878.7C756.3 878.7 814.7 870.3 872.8 867.8C931 865.3 989 868.7 1047.2 871.2C1105.3 873.7 1163.7 875.3 1221.8 885C1280 894.7 1338 912.3 1396.2 904.7C1454.3 897 1512.7 864 1570.8 846.3C1629 828.7 1687 826.3 1745.2 830.5C1803.3 834.7 1861.7 845.3 1890.8 850.7L1920 856L1920 1081L1890.8 1081C1861.7 1081 1803.3 1081 1745.2 1081C1687 1081 1629 1081 1570.8 1081C1512.7 1081 1454.3 1081 1396.2 1081C1338 1081 1280 1081 1221.8 1081C1163.7 1081 1105.3 1081 1047.2 1081C989 1081 931 1081 872.8 1081C814.7 1081 756.3 1081 698.2 1081C640 1081 582 1081 523.8 1081C465.7 1081 407.3 1081 349.2 1081C291 1081 233 1081 174.8 1081C116.7 1081 58.3 1081 29.2 1081L0 1081Z" fill="#585a74"></path>
    <path d="M0 896L29.2 902.7C58.3 909.3 116.7 922.7 174.8 922.5C233 922.3 291 908.7 349.2 901.7C407.3 894.7 465.7 894.3 523.8 898.7C582 903 640 912 698.2 909C756.3 906 814.7 891 872.8 883.2C931 875.3 989 874.7 1047.2 881.7C1105.3 888.7 1163.7 903.3 1221.8 910C1280 916.7 1338 915.3 1396.2 913.5C1454.3 911.7 1512.7 909.3 1570.8 918.5C1629 927.7 1687 948.3 1745.2 959C1803.3 969.7 1861.7 970.3 1890.8 970.7L1920 971L1920 1081L1890.8 1081C1861.7 1081 1803.3 1081 1745.2 1081C1687 1081 1629 1081 1570.8 1081C1512.7 1081 1454.3 1081 1396.2 1081C1338 1081 1280 1081 1221.8 1081C1163.7 1081 1105.3 1081 1047.2 1081C989 1081 931 1081 872.8 1081C814.7 1081 756.3 1081 698.2 1081C640 1081 582 1081 523.8 1081C465.7 1081 407.3 1081 349.2 1081C291 1081 233 1081 174.8 1081C116.7 1081 58.3 1081 29.2 1081L0 1081Z" fill="#44465e"></path>
    <path d="M0 963L29.2 970.5C58.3 978 116.7 993 174.8 997C233 1001 291 994 349.2 987.2C407.3 980.3 465.7 973.7 523.8 966.7C582 959.7 640 952.3 698.2 947.7C756.3 943 814.7 941 872.8 951.3C931 961.7 989 984.3 1047.2 995C1105.3 1005.7 1163.7 1004.3 1221.8 1000.3C1280 996.3 1338 989.7 1396.2 990.7C1454.3 991.7 1512.7 1000.3 1570.8 995C1629 989.7 1687 970.3 1745.2 959.8C1803.3 949.3 1861.7 947.7 1890.8 946.8L1920 946L1920 1081L1890.8 1081C1861.7 1081 1803.3 1081 1745.2 1081C1687 1081 1629 1081 1570.8 1081C1512.7 1081 1454.3 1081 1396.2 1081C1338 1081 1280 1081 1221.8 1081C1163.7 1081 1105.3 1081 1047.2 1081C989 1081 931 1081 872.8 1081C814.7 1081 756.3 1081 698.2 1081C640 1081 582 1081 523.8 1081C465.7 1081 407.3 1081 349.2 1081C291 1081 233 1081 174.8 1081C116.7 1081 58.3 1081 29.2 1081L0 1081Z" fill="#313248"></path>
    <path d="M0 1009L29.2 1016.5C58.3 1024 116.7 1039 174.8 1039.8C233 1040.7 291 1027.3 349.2 1026.7C407.3 1026 465.7 1038 523.8 1037.7C582 1037.3 640 1024.7 698.2 1016.8C756.3 1009 814.7 1006 872.8 1002C931 998 989 993 1047.2 990.7C1105.3 988.3 1163.7 988.7 1221.8 993C1280 997.3 1338 1005.7 1396.2 1015.8C1454.3 1026 1512.7 1038 1570.8 1044.5C1629 1051 1687 1052 1745.2 1052.5C1803.3 1053 1861.7 1053 1890.8 1053L1920 1053L1920 1081L1890.8 1081C1861.7 1081 1803.3 1081 1745.2 1081C1687 1081 1629 1081 1570.8 1081C1512.7 1081 1454.3 1081 1396.2 1081C1338 1081 1280 1081 1221.8 1081C1163.7 1081 1105.3 1081 1047.2 1081C989 1081 931 1081 872.8 1081C814.7 1081 756.3 1081 698.2 1081C640 1081 582 1081 523.8 1081C465.7 1081 407.3 1081 349.2 1081C291 1081 233 1081 174.8 1081C116.7 1081 58.3 1081 29.2 1081L0 1081Z" fill="#1f2033"></path>
</svg>