<svg id="visual" viewBox="0 0 1920 1080" width="1920" height="1080" xmlns="http://www.w3.org/2000/svg" xmlns:xlink="http://www.w3.org/1999/xlink" version="1.1">
    <rect x="0" y="0" width="1920" height="1080" fill="#1f2033"></rect>
    <path d="M0 607L29.2 614C58.3 621 116.7 635 174.8 646.8C233 658.7 291 668.3 349.2 687C407.3 705.7 465.7 733.3 523.8 745.5C582 757.7 640 754.3 698.2 738.3C756.3 722.3 814.7 693.7 872.8 677.7C931 661.7 989 658.3 1047.2 672.3C1105.3 686.3 1163.7 717.7 1221.8 720.3C1280 723 1338 697 1396.2 674.3C1454.3 651.7 1512.7 632.3 1570.8 643.8C1629 655.3 1687 697.7 1745.2 696.8C1803.3 696 1861.7 652 1890.8 630L1920 608L1920 1081L1890.8 1081C1861.7 1081 1803.3 1081 1745.2 1081C1687 1081 1629 1081 1570.8 1081C1512.7 1081 1454.3 1081 1396.2 1081C1338 1081 1280 1081 1221.8 1081C1163.7 1081 1105.3 1081 1047.2 1081C989 1081 931 1081 872.8 1081C814.7 1081 756.3 1081 698.2 1081C640 1081 582 1081 523.8 1081C465.7 1081 407.3 1081 349.2 1081C291 1081 233 1081 174.8 1081C116.7 1081 58.3 1081 29.2 1081L0 1081Z" fill="#aeb4d7"></path>
    <path d="M0 687L29.2 686.3C58.3 685.7 116.7 684.3 174.8 695.7C233 707 291 731 349.2 736.2C407.3 741.3 465.7 727.7 523.8 721.8C582 716 640 718 698.2 715.8C756.3 713.7 814.7 707.3 872.8 708.8C931 710.3 989 719.7 1047.2 731.2C1105.3 742.7 1163.7 756.3 1221.8 763.7C1280 771 1338 772 1396.2 771.7C1454.3 771.3 1512.7 769.7 1570.8 754.2C1629 738.7 1687 709.3 1745.2 704.5C1803.3 699.7 1861.7 719.3 1890.8 729.2L1920 739L1920 1081L1890.8 1081C1861.7 1081 1803.3 1081 1745.2 1081C1687 1081 1629 1081 1570.8 1081C1512.7 1081 1454.3 1081 1396.2 1081C1338 1081 1280 1081 1221.8 1081C1163.7 1081 1105.3 1081 1047.2 1081C989 1081 931 1081 872.8 1081C814.7 1081 756.3 1081 698.2 1081C640 1081 582 1081 523.8 1081C465.7 1081 407.3 1081 349.2 1081C291 1081 233 1081 174.8 1081C116.7 1081 58.3 1081 29.2 1081L0 1081Z" fill="#989dbd"></path>
    <path d="M0 816L29.2 806.8C58.3 797.7 116.7 779.3 174.8 771.3C233 763.3 291 765.7 349.2 762.3C407.3 759 465.7 750 523.8 747.8C582 745.7 640 750.3 698.2 752.8C756.3 755.3 814.7 755.7 872.8 755.7C931 755.7 989 755.3 1047.2 754.8C1105.3 754.3 1163.7 753.7 1221.8 759.2C1280 764.7 1338 776.3 1396.2 781.5C1454.3 786.7 1512.7 785.3 1570.8 779.8C1629 774.3 1687 764.7 1745.2 765.7C1803.3 766.7 1861.7 778.3 1890.8 784.2L1920 790L1920 1081L1890.8 1081C1861.7 1081 1803.3 1081 1745.2 1081C1687 1081 1629 1081 1570.8 1081C1512.7 1081 1454.3 1081 1396.2 1081C1338 1081 1280 1081 1221.8 1081C1163.7 1081 1105.3 1081 1047.2 1081C989 1081 931 1081 872.8 1081C814.7 1081 756.3 1081 698.2 1081C640 1081 582 1081 523.8 1081C465.7 1081 407.3 1081 349.2 1081C291 1081 233 1081 174.8 1081C116.7 1081 58.3 1081 29.2 1081L0 1081Z" fill="#8286a4"></path>
    <path d="M0 821L29.2 821.5C58.3 822 116.7 823 174.8 827.8C233 832.7 291 841.3 349.2 836.7C407.3 832 465.7 814 523.8 811.3C582 808.7 640 821.3 698.2 819.3C756.3 817.3 814.7 800.7 872.8 792.8C931 785 989 786 1047.2 802.7C1105.3 819.3 1163.7 851.7 1221.8 852.2C1280 852.7 1338 821.3 1396.2 807.8C1454.3 794.3 1512.7 798.7 1570.8 808C1629 817.3 1687 831.7 1745.2 831C1803.3 830.3 1861.7 814.7 1890.8 806.8L1920 799L1920 1081L1890.8 1081C1861.7 1081 1803.3 1081 1745.2 1081C1687 1081 1629 1081 1570.8 1081C1512.7 1081 1454.3 1081 1396.2 1081C1338 1081 1280 1081 1221.8 1081C1163.7 1081 1105.3 1081 1047.2 1081C989 1081 931 1081 872.8 1081C814.7 1081 756.3 1081 698.2 1081C640 1081 582 1081 523.8 1081C465.7 1081 407.3 1081 349.2 1081C291 1081 233 1081 174.8 1081C116.7 1081 58.3 1081 29.2 1081L0 1081Z" fill="#6c708c"></path>
    <path d="M0 857L29.2 853.3C58.3 849.7 116.7 842.3 174.8 843C233 843.7 291 852.3 349.2 861.7C407.3 871 465.7 881 523.8 875.2C582 869.3 640 847.7 698.2 848.2C756.3 848.7 814.7 871.3 872.8 872.3C931 873.3 989 852.7 1047.2 858.5C1105.3 864.3 1163.7 896.7 1221.8 896.2C1280 895.7 1338 862.3 1396.2 857C1454.3 851.7 1512.7 874.3 1570.8 874.2C1629 874 1687 851 1745.2 853.8C1803.3 856.7 1861.7 885.3 1890.8 899.7L1920 914L1920 1081L1890.8 1081C1861.7 1081 1803.3 1081 1745.2 1081C1687 1081 1629 1081 1570.8 1081C1512.7 1081 1454.3 1081 1396.2 1081C1338 1081 1280 1081 1221.8 1081C1163.7 1081 1105.3 1081 1047.2 1081C989 1081 931 1081 872.8 1081C814.7 1081 756.3 1081 698.2 1081C640 1081 582 1081 523.8 1081C465.7 1081 407.3 1081 349.2 1081C291 1081 233 1081 174.8 1081C116.7 1081 58.3 1081 29.2 1081L0 1081Z" fill="#585a74"></path>
    <path d="M0 955L29.2 947.8C58.3 940.7 116.7 926.3 174.8 918.3C233 910.3 291 908.7 349.2 918.2C407.3 927.7 465.7 948.3 523.8 943.5C582 938.7 640 908.3 698.2 907.3C756.3 906.3 814.7 934.7 872.8 942.5C931 950.3 989 937.7 1047.2 928.5C1105.3 919.3 1163.7 913.7 1221.8 913C1280 912.3 1338 916.7 1396.2 923.7C1454.3 930.7 1512.7 940.3 1570.8 941.2C1629 942 1687 934 1745.2 930.3C1803.3 926.7 1861.7 927.3 1890.8 927.7L1920 928L1920 1081L1890.8 1081C1861.7 1081 1803.3 1081 1745.2 1081C1687 1081 1629 1081 1570.8 1081C1512.7 1081 1454.3 1081 1396.2 1081C1338 1081 1280 1081 1221.8 1081C1163.7 1081 1105.3 1081 1047.2 1081C989 1081 931 1081 872.8 1081C814.7 1081 756.3 1081 698.2 1081C640 1081 582 1081 523.8 1081C465.7 1081 407.3 1081 349.2 1081C291 1081 233 1081 174.8 1081C116.7 1081 58.3 1081 29.2 1081L0 1081Z" fill="#44465e"></path>
    <path d="M0 954L29.2 959.5C58.3 965 116.7 976 174.8 974.8C233 973.7 291 960.3 349.2 954C407.3 947.7 465.7 948.3 523.8 956.8C582 965.3 640 981.7 698.2 986.7C756.3 991.7 814.7 985.3 872.8 981.2C931 977 989 975 1047.2 975.7C1105.3 976.3 1163.7 979.7 1221.8 977.3C1280 975 1338 967 1396.2 965.2C1454.3 963.3 1512.7 967.7 1570.8 965C1629 962.3 1687 952.7 1745.2 945.5C1803.3 938.3 1861.7 933.7 1890.8 931.3L1920 929L1920 1081L1890.8 1081C1861.7 1081 1803.3 1081 1745.2 1081C1687 1081 1629 1081 1570.8 1081C1512.7 1081 1454.3 1081 1396.2 1081C1338 1081 1280 1081 1221.8 1081C1163.7 1081 1105.3 1081 1047.2 1081C989 1081 931 1081 872.8 1081C814.7 1081 756.3 1081 698.2 1081C640 1081 582 1081 523.8 1081C465.7 1081 407.3 1081 349.2 1081C291 1081 233 1081 174.8 1081C116.7 1081 58.3 1081 29.2 1081L0 1081Z" fill="#313248"></path>
    <path d="M0 1016L29.2 1020C58.3 1024 116.7 1032 174.8 1038.3C233 1044.7 291 1049.3 349.2 1045.7C407.3 1042 465.7 1030 523.8 1025.5C582 1021 640 1024 698.2 1026C756.3 1028 814.7 1029 872.8 1027.8C931 1026.7 989 1023.3 1047.2 1020.3C1105.3 1017.3 1163.7 1014.7 1221.8 1010.5C1280 1006.3 1338 1000.7 1396.2 1003.2C1454.3 1005.7 1512.7 1016.3 1570.8 1024.8C1629 1033.3 1687 1039.7 1745.2 1043.8C1803.3 1048 1861.7 1050 1890.8 1051L1920 1052L1920 1081L1890.8 1081C1861.7 1081 1803.3 1081 1745.2 1081C1687 1081 1629 1081 1570.8 1081C1512.7 1081 1454.3 1081 1396.2 1081C1338 1081 1280 1081 1221.8 1081C1163.7 1081 1105.3 1081 1047.2 1081C989 1081 931 1081 872.8 1081C814.7 1081 756.3 1081 698.2 1081C640 1081 582 1081 523.8 1081C465.7 1081 407.3 1081 349.2 1081C291 1081 233 1081 174.8 1081C116.7 1081 58.3 1081 29.2 1081L0 1081Z" fill="#1f2033"></path>
</svg>