<svg id="visual" viewBox="0 0 1920 1080" width="1920" height="1080" xmlns="http://www.w3.org/2000/svg" xmlns:xlink="http://www.w3.org/1999/xlink" version="1.1"><rect x="0" y="0" width="1920" height="1080" fill="#272727"></rect><path d="M0 725L45.7 712.3C91.3 699.7 182.7 674.3 274.2 664.8C365.7 655.3 457.3 661.7 548.8 680.7C640.3 699.7 731.7 731.3 823 742.5C914.3 753.7 1005.7 744.3 1097 739.7C1188.3 735 1279.7 735 1371.2 738.8C1462.7 742.7 1554.3 750.3 1645.8 752.5C1737.3 754.7 1828.7 751.3 1874.3 749.7L1920 748L1920 1081L1874.3 1081C1828.7 1081 1737.3 1081 1645.8 1081C1554.3 1081 1462.7 1081 1371.2 1081C1279.7 1081 1188.3 1081 1097 1081C1005.7 1081 914.3 1081 823 1081C731.7 1081 640.3 1081 548.8 1081C457.3 1081 365.7 1081 274.2 1081C182.7 1081 91.3 1081 45.7 1081L0 1081Z" fill="#a6fdff"></path><path d="M0 825L45.7 828C91.3 831 182.7 837 274.2 823.2C365.7 809.3 457.3 775.7 548.8 753.5C640.3 731.3 731.7 720.7 823 739.7C914.3 758.7 1005.7 807.3 1097 807.2C1188.3 807 1279.7 758 1371.2 754.5C1462.7 751 1554.3 793 1645.8 811.8C1737.3 830.7 1828.7 826.3 1874.3 824.2L1920 822L1920 1081L1874.3 1081C1828.7 1081 1737.3 1081 1645.8 1081C1554.3 1081 1462.7 1081 1371.2 1081C1279.7 1081 1188.3 1081 1097 1081C1005.7 1081 914.3 1081 823 1081C731.7 1081 640.3 1081 548.8 1081C457.3 1081 365.7 1081 274.2 1081C182.7 1081 91.3 1081 45.7 1081L0 1081Z" fill="#7fd3da"></path><path d="M0 920L45.7 911.2C91.3 902.3 182.7 884.7 274.2 868C365.7 851.3 457.3 835.7 548.8 840.7C640.3 845.7 731.7 871.3 823 877.7C914.3 884 1005.7 871 1097 858.7C1188.3 846.3 1279.7 834.7 1371.2 840C1462.7 845.3 1554.3 867.7 1645.8 868.2C1737.3 868.7 1828.7 847.3 1874.3 836.7L1920 826L1920 1081L1874.3 1081C1828.7 1081 1737.3 1081 1645.8 1081C1554.3 1081 1462.7 1081 1371.2 1081C1279.7 1081 1188.3 1081 1097 1081C1005.7 1081 914.3 1081 823 1081C731.7 1081 640.3 1081 548.8 1081C457.3 1081 365.7 1081 274.2 1081C182.7 1081 91.3 1081 45.7 1081L0 1081Z" fill="#5aaab5"></path><path d="M0 925L45.7 923.5C91.3 922 182.7 919 274.2 912.2C365.7 905.3 457.3 894.7 548.8 887C640.3 879.3 731.7 874.7 823 887.7C914.3 900.7 1005.7 931.3 1097 944C1188.3 956.7 1279.7 951.3 1371.2 935.5C1462.7 919.7 1554.3 893.3 1645.8 893.2C1737.3 893 1828.7 919 1874.3 932L1920 945L1920 1081L1874.3 1081C1828.7 1081 1737.3 1081 1645.8 1081C1554.3 1081 1462.7 1081 1371.2 1081C1279.7 1081 1188.3 1081 1097 1081C1005.7 1081 914.3 1081 823 1081C731.7 1081 640.3 1081 548.8 1081C457.3 1081 365.7 1081 274.2 1081C182.7 1081 91.3 1081 45.7 1081L0 1081Z" fill="#358291"></path><path d="M0 964L45.7 967.3C91.3 970.7 182.7 977.3 274.2 974C365.7 970.7 457.3 957.3 548.8 961.5C640.3 965.7 731.7 987.3 823 1001C914.3 1014.7 1005.7 1020.3 1097 1022C1188.3 1023.7 1279.7 1021.3 1371.2 1008.5C1462.7 995.7 1554.3 972.3 1645.8 965.2C1737.3 958 1828.7 967 1874.3 971.5L1920 976L1920 1081L1874.3 1081C1828.7 1081 1737.3 1081 1645.8 1081C1554.3 1081 1462.7 1081 1371.2 1081C1279.7 1081 1188.3 1081 1097 1081C1005.7 1081 914.3 1081 823 1081C731.7 1081 640.3 1081 548.8 1081C457.3 1081 365.7 1081 274.2 1081C182.7 1081 91.3 1081 45.7 1081L0 1081Z" fill="#065d6e"></path></svg>