<svg id="visual" viewBox="0 0 1920 1080" width="1920" height="1080" xmlns="http://www.w3.org/2000/svg" xmlns:xlink="http://www.w3.org/1999/xlink" version="1.1">
<rect x="0" y="0" width="1920" height="1080" fill="#272727">
    </rect>
<path d="M0 745L45.7 743.5C91.3 742 182.7 739 274.2 746.8C365.7 754.7 457.3 773.3 548.8 784.3C640.3 795.3 731.7 798.7 823 789.8C914.3 781 1005.7 760 1097 756.5C1188.3 753 1279.7 767 1371.2 774.8C1462.7 782.7 1554.3 784.3 1645.8 765.3C1737.3 746.3 1828.7 706.7 1874.3 686.8L1920 667L1920 1081L1874.3 1081C1828.7 1081 1737.3 1081 1645.8 1081C1554.3 1081 1462.7 1081 1371.2 1081C1279.7 1081 1188.3 1081 1097 1081C1005.7 1081 914.3 1081 823 1081C731.7 1081 640.3 1081 548.8 1081C457.3 1081 365.7 1081 274.2 1081C182.7 1081 91.3 1081 45.7 1081L0 1081Z" fill="#a6fdff"></path><path d="M0 863L45.7 843.8C91.3 824.7 182.7 786.3 274.2 768.2C365.7 750 457.3 752 548.8 746.3C640.3 740.7 731.7 727.3 823 739.8C914.3 752.3 1005.7 790.7 1097 792C1188.3 793.3 1279.7 757.7 1371.2 763.2C1462.7 768.7 1554.3 815.3 1645.8 823.7C1737.3 832 1828.7 802 1874.3 787L1920 772L1920 1081L1874.3 1081C1828.7 1081 1737.3 1081 1645.8 1081C1554.3 1081 1462.7 1081 1371.2 1081C1279.7 1081 1188.3 1081 1097 1081C1005.7 1081 914.3 1081 823 1081C731.7 1081 640.3 1081 548.8 1081C457.3 1081 365.7 1081 274.2 1081C182.7 1081 91.3 1081 45.7 1081L0 1081Z" fill="#89dde3"></path><path d="M0 885L45.7 888.2C91.3 891.3 182.7 897.7 274.2 892.5C365.7 887.3 457.3 870.7 548.8 868C640.3 865.3 731.7 876.7 823 879.2C914.3 881.7 1005.7 875.3 1097 880.5C1188.3 885.7 1279.7 902.3 1371.2 890C1462.7 877.7 1554.3 836.3 1645.8 825.3C1737.3 814.3 1828.7 833.7 1874.3 843.3L1920 853L1920 1081L1874.3 1081C1828.7 1081 1737.3 1081 1645.8 1081C1554.3 1081 1462.7 1081 1371.2 1081C1279.7 1081 1188.3 1081 1097 1081C1005.7 1081 914.3 1081 823 1081C731.7 1081 640.3 1081 548.8 1081C457.3 1081 365.7 1081 274.2 1081C182.7 1081 91.3 1081 45.7 1081L0 1081Z" fill="#6cbec7"></path><path d="M0 962L45.7 960.7C91.3 959.3 182.7 956.7 274.2 954C365.7 951.3 457.3 948.7 548.8 945.8C640.3 943 731.7 940 823 933.3C914.3 926.7 1005.7 916.3 1097 922.7C1188.3 929 1279.7 952 1371.2 963C1462.7 974 1554.3 973 1645.8 966C1737.3 959 1828.7 946 1874.3 939.5L1920 933L1920 1081L1874.3 1081C1828.7 1081 1737.3 1081 1645.8 1081C1554.3 1081 1462.7 1081 1371.2 1081C1279.7 1081 1188.3 1081 1097 1081C1005.7 1081 914.3 1081 823 1081C731.7 1081 640.3 1081 548.8 1081C457.3 1081 365.7 1081 274.2 1081C182.7 1081 91.3 1081 45.7 1081L0 1081Z" fill="#50a0ac"></path><path d="M0 1033L45.7 1032.8C91.3 1032.7 182.7 1032.3 274.2 1032.3C365.7 1032.3 457.3 1032.7 548.8 1024C640.3 1015.3 731.7 997.7 823 995.5C914.3 993.3 1005.7 1006.7 1097 1008.2C1188.3 1009.7 1279.7 999.3 1371.2 993.3C1462.7 987.3 1554.3 985.7 1645.8 989.3C1737.3 993 1828.7 1002 1874.3 1006.5L1920 1011L1920 1081L1874.3 1081C1828.7 1081 1737.3 1081 1645.8 1081C1554.3 1081 1462.7 1081 1371.2 1081C1279.7 1081 1188.3 1081 1097 1081C1005.7 1081 914.3 1081 823 1081C731.7 1081 640.3 1081 548.8 1081C457.3 1081 365.7 1081 274.2 1081C182.7 1081 91.3 1081 45.7 1081L0 1081Z" fill="#358291">
    </path>
    </svg>