<svg id="visual" viewBox="0 0 1920 1080" width="1920" height="1080" xmlns="http://www.w3.org/2000/svg" xmlns:xlink="http://www.w3.org/1999/xlink" version="1.1"><path d="M0 347L53.3 309.2C106.7 271.3 213.3 195.7 320 170.3C426.7 145 533.3 170 640 189.8C746.7 209.7 853.3 224.3 960 202.8C1066.7 181.3 1173.3 123.7 1280 121.8C1386.7 120 1493.3 174 1600 206.3C1706.7 238.7 1813.3 249.3 1866.7 254.7L1920 260L1920 0L1866.7 0C1813.3 0 1706.7 0 1600 0C1493.3 0 1386.7 0 1280 0C1173.3 0 1066.7 0 960 0C853.3 0 746.7 0 640 0C533.3 0 426.7 0 320 0C213.3 0 106.7 0 53.3 0L0 0Z" fill="#004cbb"></path><path d="M0 476L53.3 436.5C106.7 397 213.3 318 320 283.8C426.7 249.7 533.3 260.3 640 278.3C746.7 296.3 853.3 321.7 960 305.5C1066.7 289.3 1173.3 231.7 1280 235.2C1386.7 238.7 1493.3 303.3 1600 326.7C1706.7 350 1813.3 332 1866.7 323L1920 314L1920 258L1866.7 252.7C1813.3 247.3 1706.7 236.7 1600 204.3C1493.3 172 1386.7 118 1280 119.8C1173.3 121.7 1066.7 179.3 960 200.8C853.3 222.3 746.7 207.7 640 187.8C533.3 168 426.7 143 320 168.3C213.3 193.7 106.7 269.3 53.3 307.2L0 345Z" fill="#0058d9"></path><path d="M0 498L53.3 465.5C106.7 433 213.3 368 320 337.3C426.7 306.7 533.3 310.3 640 326.7C746.7 343 853.3 372 960 363C1066.7 354 1173.3 307 1280 312.3C1386.7 317.7 1493.3 375.3 1600 395.2C1706.7 415 1813.3 397 1866.7 388L1920 379L1920 312L1866.7 321C1813.3 330 1706.7 348 1600 324.7C1493.3 301.3 1386.7 236.7 1280 233.2C1173.3 229.7 1066.7 287.3 960 303.5C853.3 319.7 746.7 294.3 640 276.3C533.3 258.3 426.7 247.7 320 281.8C213.3 316 106.7 395 53.3 434.5L0 474Z" fill="#0064f9"></path><path d="M0 584L53.3 548C106.7 512 213.3 440 320 395C426.7 350 533.3 332 640 346.5C746.7 361 853.3 408 960 406.2C1066.7 404.3 1173.3 353.7 1280 360.8C1386.7 368 1493.3 433 1600 451C1706.7 469 1813.3 440 1866.7 425.5L1920 411L1920 377L1866.7 386C1813.3 395 1706.7 413 1600 393.2C1493.3 373.3 1386.7 315.7 1280 310.3C1173.3 305 1066.7 352 960 361C853.3 370 746.7 341 640 324.7C533.3 308.3 426.7 304.7 320 335.3C213.3 366 106.7 431 53.3 463.5L0 496Z" fill="#3079ff"></path><path d="M0 595L53.3 557.2C106.7 519.3 213.3 443.7 320 400.5C426.7 357.3 533.3 346.7 640 362.8C746.7 379 853.3 422 960 427.3C1066.7 432.7 1173.3 400.3 1280 416.7C1386.7 433 1493.3 498 1600 514.2C1706.7 530.3 1813.3 497.7 1866.7 481.3L1920 465L1920 409L1866.7 423.5C1813.3 438 1706.7 467 1600 449C1493.3 431 1386.7 366 1280 358.8C1173.3 351.7 1066.7 402.3 960 404.2C853.3 406 746.7 359 640 344.5C533.3 330 426.7 348 320 393C213.3 438 106.7 510 53.3 546L0 582Z" fill="#548fff"></path><path d="M0 725L53.3 721.3C106.7 717.7 213.3 710.3 320 663.5C426.7 616.7 533.3 530.3 640 519.5C746.7 508.7 853.3 573.3 960 618.3C1066.7 663.3 1173.3 688.7 1280 708.5C1386.7 728.3 1493.3 742.7 1600 740.8C1706.7 739 1813.3 721 1866.7 712L1920 703L1920 463L1866.7 479.3C1813.3 495.7 1706.7 528.3 1600 512.2C1493.3 496 1386.7 431 1280 414.7C1173.3 398.3 1066.7 430.7 960 425.3C853.3 420 746.7 377 640 360.8C533.3 344.7 426.7 355.3 320 398.5C213.3 441.7 106.7 517.3 53.3 555.2L0 593Z" fill="#6198ff"></path><path d="M0 789L53.3 781.8C106.7 774.7 213.3 760.3 320 704.7C426.7 649 533.3 552 640 539.5C746.7 527 853.3 599 960 644C1066.7 689 1173.3 707 1280 723.2C1386.7 739.3 1493.3 753.7 1600 751.8C1706.7 750 1813.3 732 1866.7 723L1920 714L1920 701L1866.7 710C1813.3 719 1706.7 737 1600 738.8C1493.3 740.7 1386.7 726.3 1280 706.5C1173.3 686.7 1066.7 661.3 960 616.3C853.3 571.3 746.7 506.7 640 517.5C533.3 528.3 426.7 614.7 320 661.5C213.3 708.3 106.7 715.7 53.3 719.3L0 723Z" fill="#6198ff"></path><path d="M0 887L53.3 869C106.7 851 213.3 815 320 750.2C426.7 685.3 533.3 591.7 640 577.2C746.7 562.7 853.3 627.3 960 668.7C1066.7 710 1173.3 728 1280 746C1386.7 764 1493.3 782 1600 783.8C1706.7 785.7 1813.3 771.3 1866.7 764.2L1920 757L1920 712L1866.7 721C1813.3 730 1706.7 748 1600 749.8C1493.3 751.7 1386.7 737.3 1280 721.2C1173.3 705 1066.7 687 960 642C853.3 597 746.7 525 640 537.5C533.3 550 426.7 647 320 702.7C213.3 758.3 106.7 772.7 53.3 779.8L0 787Z" fill="#548fff"></path><path d="M0 930L53.3 913.8C106.7 897.7 213.3 865.3 320 809.5C426.7 753.7 533.3 674.3 640 668.8C746.7 663.3 853.3 731.7 960 767.7C1066.7 803.7 1173.3 807.3 1280 821.8C1386.7 836.3 1493.3 861.7 1600 861.7C1706.7 861.7 1813.3 836.3 1866.7 823.7L1920 811L1920 755L1866.7 762.2C1813.3 769.3 1706.7 783.7 1600 781.8C1493.3 780 1386.7 762 1280 744C1173.3 726 1066.7 708 960 666.7C853.3 625.3 746.7 560.7 640 575.2C533.3 589.7 426.7 683.3 320 748.2C213.3 813 106.7 849 53.3 867L0 885Z" fill="#3079ff"></path><path d="M0 951L53.3 943.8C106.7 936.7 213.3 922.3 320 902.7C426.7 883 533.3 858 640 850.8C746.7 843.7 853.3 854.3 960 879.5C1066.7 904.7 1173.3 944.3 1280 964.2C1386.7 984 1493.3 984 1600 985.8C1706.7 987.7 1813.3 991.3 1866.7 993.2L1920 995L1920 809L1866.7 821.7C1813.3 834.3 1706.7 859.7 1600 859.7C1493.3 859.7 1386.7 834.3 1280 819.8C1173.3 805.3 1066.7 801.7 960 765.7C853.3 729.7 746.7 661.3 640 666.8C533.3 672.3 426.7 751.7 320 807.5C213.3 863.3 106.7 895.7 53.3 911.8L0 928Z" fill="#0064f9"></path><path d="M0 1005L53.3 1005C106.7 1005 213.3 1005 320 1012.3C426.7 1019.7 533.3 1034.3 640 1045.2C746.7 1056 853.3 1063 960 1055.7C1066.7 1048.3 1173.3 1026.7 1280 1017.7C1386.7 1008.7 1493.3 1012.3 1600 1012.3C1706.7 1012.3 1813.3 1008.7 1866.7 1006.8L1920 1005L1920 993L1866.7 991.2C1813.3 989.3 1706.7 985.7 1600 983.8C1493.3 982 1386.7 982 1280 962.2C1173.3 942.3 1066.7 902.7 960 877.5C853.3 852.3 746.7 841.7 640 848.8C533.3 856 426.7 881 320 900.7C213.3 920.3 106.7 934.7 53.3 941.8L0 949Z" fill="#0058d9"></path><path d="M0 1081L53.3 1081C106.7 1081 213.3 1081 320 1081C426.7 1081 533.3 1081 640 1081C746.7 1081 853.3 1081 960 1081C1066.7 1081 1173.3 1081 1280 1081C1386.7 1081 1493.3 1081 1600 1081C1706.7 1081 1813.3 1081 1866.7 1081L1920 1081L1920 1003L1866.7 1004.8C1813.3 1006.7 1706.7 1010.3 1600 1010.3C1493.3 1010.3 1386.7 1006.7 1280 1015.7C1173.3 1024.7 1066.7 1046.3 960 1053.7C853.3 1061 746.7 1054 640 1043.2C533.3 1032.3 426.7 1017.7 320 1010.3C213.3 1003 106.7 1003 53.3 1003L0 1003Z" fill="#004cbb"></path></svg>