<svg id="visual" viewBox="0 0 1920 1080" width="100%" height="100%" version="1.1"><path d="M0 239L35.5 215.5C71 192 142 145 213.2 136C284.3 127 355.7 156 426.8 147C498 138 569 91 640 92.7C711 94.3 782 144.7 853.2 173.5C924.3 202.3 995.7 209.7 1066.8 202.5C1138 195.3 1209 173.7 1280 173.7C1351 173.7 1422 195.3 1493.2 199C1564.3 202.7 1635.7 188.3 1706.8 195.5C1778 202.7 1849 231.3 1884.5 245.7L1920 260L1920 0L1884.5 0C1849 0 1778 0 1706.8 0C1635.7 0 1564.3 0 1493.2 0C1422 0 1351 0 1280 0C1209 0 1138 0 1066.8 0C995.7 0 924.3 0 853.2 0C782 0 711 0 640 0C569 0 498 0 426.8 0C355.7 0 284.3 0 213.2 0C142 0 71 0 35.5 0L0 0Z" fill="#191927"></path><path d="M0 519L35.5 501C71 483 142 447 213.2 465C284.3 483 355.7 555 426.8 549.7C498 544.3 569 461.7 640 433C711 404.3 782 429.7 853.2 454.8C924.3 480 995.7 505 1066.8 481.5C1138 458 1209 386 1280 355.5C1351 325 1422 336 1493.2 359.5C1564.3 383 1635.7 419 1706.8 437C1778 455 1849 455 1884.5 455L1920 455L1920 258L1884.5 243.7C1849 229.3 1778 200.7 1706.8 193.5C1635.7 186.3 1564.3 200.7 1493.2 197C1422 193.3 1351 171.7 1280 171.7C1209 171.7 1138 193.3 1066.8 200.5C995.7 207.7 924.3 200.3 853.2 171.5C782 142.7 711 92.3 640 90.7C569 89 498 136 426.8 145C355.7 154 284.3 125 213.2 134C142 143 71 190 35.5 213.5L0 237Z" fill="#1c1d2e"></path><path d="M0 552L35.5 544.8C71 537.7 142 523.3 213.2 552.2C284.3 581 355.7 653 426.8 635C498 617 569 509 640 465.7C711 422.3 782 443.7 853.2 472.3C924.3 501 995.7 537 1066.8 529.8C1138 522.7 1209 472.3 1280 434.7C1351 397 1422 372 1493.2 382.8C1564.3 393.7 1635.7 440.3 1706.8 476.3C1778 512.3 1849 537.7 1884.5 550.3L1920 563L1920 453L1884.5 453C1849 453 1778 453 1706.8 435C1635.7 417 1564.3 381 1493.2 357.5C1422 334 1351 323 1280 353.5C1209 384 1138 456 1066.8 479.5C995.7 503 924.3 478 853.2 452.8C782 427.7 711 402.3 640 431C569 459.7 498 542.3 426.8 547.7C355.7 553 284.3 481 213.2 463C142 445 71 481 35.5 499L0 517Z" fill="#222337"></path><path d="M0 595L35.5 580.7C71 566.3 142 537.7 213.2 566.5C284.3 595.3 355.7 681.7 426.8 678C498 674.3 569 580.7 640 551.8C711 523 782 559 853.2 582.3C924.3 605.7 995.7 616.3 1066.8 598.3C1138 580.3 1209 533.7 1280 497.7C1351 461.7 1422 436.3 1493.2 463.3C1564.3 490.3 1635.7 569.7 1706.8 605.7C1778 641.7 1849 634.3 1884.5 630.7L1920 627L1920 561L1884.5 548.3C1849 535.7 1778 510.3 1706.8 474.3C1635.7 438.3 1564.3 391.7 1493.2 380.8C1422 370 1351 395 1280 432.7C1209 470.3 1138 520.7 1066.8 527.8C995.7 535 924.3 499 853.2 470.3C782 441.7 711 420.3 640 463.7C569 507 498 615 426.8 633C355.7 651 284.3 579 213.2 550.2C142 521.3 71 535.7 35.5 542.8L0 550Z" fill="#33344d"></path><path d="M0 606L35.5 604.2C71 602.3 142 598.7 213.2 629.2C284.3 659.7 355.7 724.3 426.8 711.7C498 699 569 609 640 598.3C711 587.7 782 656.3 853.2 681.7C924.3 707 995.7 689 1066.8 649.3C1138 609.7 1209 548.3 1280 519.5C1351 490.7 1422 494.3 1493.2 523.2C1564.3 552 1635.7 606 1706.8 638.3C1778 670.7 1849 681.3 1884.5 686.7L1920 692L1920 625L1884.5 628.7C1849 632.3 1778 639.7 1706.8 603.7C1635.7 567.7 1564.3 488.3 1493.2 461.3C1422 434.3 1351 459.7 1280 495.7C1209 531.7 1138 578.3 1066.8 596.3C995.7 614.3 924.3 603.7 853.2 580.3C782 557 711 521 640 549.8C569 578.7 498 672.3 426.8 676C355.7 679.7 284.3 593.3 213.2 564.5C142 535.7 71 564.3 35.5 578.7L0 593Z" fill="#3e3f5b"></path><path d="M0 703L35.5 701.2C71 699.3 142 695.7 213.2 713.7C284.3 731.7 355.7 771.3 426.8 746.2C498 721 569 631 640 620.2C711 609.3 782 677.7 853.2 708.3C924.3 739 995.7 732 1066.8 705C1138 678 1209 631 1280 600.3C1351 569.7 1422 555.3 1493.2 582.3C1564.3 609.3 1635.7 677.7 1706.8 715.5C1778 753.3 1849 760.7 1884.5 764.3L1920 768L1920 690L1884.5 684.7C1849 679.3 1778 668.7 1706.8 636.3C1635.7 604 1564.3 550 1493.2 521.2C1422 492.3 1351 488.7 1280 517.5C1209 546.3 1138 607.7 1066.8 647.3C995.7 687 924.3 705 853.2 679.7C782 654.3 711 585.7 640 596.3C569 607 498 697 426.8 709.7C355.7 722.3 284.3 657.7 213.2 627.2C142 596.7 71 600.3 35.5 602.2L0 604Z" fill="#3e3f5b"></path><path d="M0 768L35.5 759C71 750 142 732 213.2 741C284.3 750 355.7 786 426.8 777C498 768 569 714 640 717.5C711 721 782 782 853.2 805.3C924.3 828.7 995.7 814.3 1066.8 783.8C1138 753.3 1209 706.7 1280 674.3C1351 642 1422 624 1493.2 651C1564.3 678 1635.7 750 1706.8 780.5C1778 811 1849 800 1884.5 794.5L1920 789L1920 766L1884.5 762.3C1849 758.7 1778 751.3 1706.8 713.5C1635.7 675.7 1564.3 607.3 1493.2 580.3C1422 553.3 1351 567.7 1280 598.3C1209 629 1138 676 1066.8 703C995.7 730 924.3 737 853.2 706.3C782 675.7 711 607.3 640 618.2C569 629 498 719 426.8 744.2C355.7 769.3 284.3 729.7 213.2 711.7C142 693.7 71 697.3 35.5 699.2L0 701Z" fill="#33344d"></path><path d="M0 995L35.5 969.7C71 944.3 142 893.7 213.2 864.8C284.3 836 355.7 829 426.8 838C498 847 569 872 640 877.3C711 882.7 782 868.3 853.2 868.3C924.3 868.3 995.7 882.7 1066.8 897.2C1138 911.7 1209 926.3 1280 915.7C1351 905 1422 869 1493.2 876.2C1564.3 883.3 1635.7 933.7 1706.8 948C1778 962.3 1849 940.7 1884.5 929.8L1920 919L1920 787L1884.5 792.5C1849 798 1778 809 1706.8 778.5C1635.7 748 1564.3 676 1493.2 649C1422 622 1351 640 1280 672.3C1209 704.7 1138 751.3 1066.8 781.8C995.7 812.3 924.3 826.7 853.2 803.3C782 780 711 719 640 715.5C569 712 498 766 426.8 775C355.7 784 284.3 748 213.2 739C142 730 71 748 35.5 757L0 766Z" fill="#222337"></path><path d="M0 1059L35.5 1051.8C71 1044.7 142 1030.3 213.2 1012.3C284.3 994.3 355.7 972.7 426.8 979.8C498 987 569 1023 640 1030.3C711 1037.7 782 1016.3 853.2 1011C924.3 1005.7 995.7 1016.3 1066.8 1025.3C1138 1034.3 1209 1041.7 1280 1021.8C1351 1002 1422 955 1493.2 960.3C1564.3 965.7 1635.7 1023.3 1706.8 1045C1778 1066.7 1849 1052.3 1884.5 1045.2L1920 1038L1920 917L1884.5 927.8C1849 938.7 1778 960.3 1706.8 946C1635.7 931.7 1564.3 881.3 1493.2 874.2C1422 867 1351 903 1280 913.7C1209 924.3 1138 909.7 1066.8 895.2C995.7 880.7 924.3 866.3 853.2 866.3C782 866.3 711 880.7 640 875.3C569 870 498 845 426.8 836C355.7 827 284.3 834 213.2 862.8C142 891.7 71 942.3 35.5 967.7L0 993Z" fill="#1c1d2e"></path><path d="M0 1081L35.5 1081C71 1081 142 1081 213.2 1081C284.3 1081 355.7 1081 426.8 1081C498 1081 569 1081 640 1081C711 1081 782 1081 853.2 1081C924.3 1081 995.7 1081 1066.8 1081C1138 1081 1209 1081 1280 1081C1351 1081 1422 1081 1493.2 1081C1564.3 1081 1635.7 1081 1706.8 1081C1778 1081 1849 1081 1884.5 1081L1920 1081L1920 1036L1884.5 1043.2C1849 1050.3 1778 1064.7 1706.8 1043C1635.7 1021.3 1564.3 963.7 1493.2 958.3C1422 953 1351 1000 1280 1019.8C1209 1039.7 1138 1032.3 1066.8 1023.3C995.7 1014.3 924.3 1003.7 853.2 1009C782 1014.3 711 1035.7 640 1028.3C569 1021 498 985 426.8 977.8C355.7 970.7 284.3 992.3 213.2 1010.3C142 1028.3 71 1042.7 35.5 1049.8L0 1057Z" fill="#191927"></path></svg>