<svg id="visual" viewBox="0 0 1920 1080" width="1920" height="1080" xmlns="http://www.w3.org/2000/svg" xmlns:xlink="http://www.w3.org/1999/xlink" version="1.1"><path d="M0 98L53.3 101.7C106.7 105.3 213.3 112.7 320 98.3C426.7 84 533.3 48 640 53.3C746.7 58.7 853.3 105.3 960 130.5C1066.7 155.7 1173.3 159.3 1280 141.3C1386.7 123.3 1493.3 83.7 1600 80C1706.7 76.3 1813.3 108.7 1866.7 124.8L1920 141L1920 0L1866.7 0C1813.3 0 1706.7 0 1600 0C1493.3 0 1386.7 0 1280 0C1173.3 0 1066.7 0 960 0C853.3 0 746.7 0 640 0C533.3 0 426.7 0 320 0C213.3 0 106.7 0 53.3 0L0 0Z" fill="#004cbb"></path><path d="M0 141L53.3 150C106.7 159 213.3 177 320 169.8C426.7 162.7 533.3 130.3 640 128.7C746.7 127 853.3 156 960 170.5C1066.7 185 1173.3 185 1280 179.5C1386.7 174 1493.3 163 1600 155.7C1706.7 148.3 1813.3 144.7 1866.7 142.8L1920 141L1920 139L1866.7 122.8C1813.3 106.7 1706.7 74.3 1600 78C1493.3 81.7 1386.7 121.3 1280 139.3C1173.3 157.3 1066.7 153.7 960 128.5C853.3 103.3 746.7 56.7 640 51.3C533.3 46 426.7 82 320 96.3C213.3 110.7 106.7 103.3 53.3 99.7L0 96Z" fill="#0058d9"></path><path d="M0 152L53.3 168.2C106.7 184.3 213.3 216.7 320 214.8C426.7 213 533.3 177 640 177C746.7 177 853.3 213 960 240C1066.7 267 1173.3 285 1280 283.3C1386.7 281.7 1493.3 260.3 1600 253.2C1706.7 246 1813.3 253 1866.7 256.5L1920 260L1920 139L1866.7 140.8C1813.3 142.7 1706.7 146.3 1600 153.7C1493.3 161 1386.7 172 1280 177.5C1173.3 183 1066.7 183 960 168.5C853.3 154 746.7 125 640 126.7C533.3 128.3 426.7 160.7 320 167.8C213.3 175 106.7 157 53.3 148L0 139Z" fill="#0064f9"></path><path d="M0 336L53.3 341.3C106.7 346.7 213.3 357.3 320 341.2C426.7 325 533.3 282 640 265.8C746.7 249.7 853.3 260.3 960 289C1066.7 317.7 1173.3 364.3 1280 373.3C1386.7 382.3 1493.3 353.7 1600 341.2C1706.7 328.7 1813.3 332.3 1866.7 334.2L1920 336L1920 258L1866.7 254.5C1813.3 251 1706.7 244 1600 251.2C1493.3 258.3 1386.7 279.7 1280 281.3C1173.3 283 1066.7 265 960 238C853.3 211 746.7 175 640 175C533.3 175 426.7 211 320 212.8C213.3 214.7 106.7 182.3 53.3 166.2L0 150Z" fill="#3079ff"></path><path d="M0 465L53.3 454.3C106.7 443.7 213.3 422.3 320 402.7C426.7 383 533.3 365 640 345.2C746.7 325.3 853.3 303.7 960 316.2C1066.7 328.7 1173.3 375.3 1280 387.8C1386.7 400.3 1493.3 378.7 1600 373.3C1706.7 368 1813.3 379 1866.7 384.5L1920 390L1920 334L1866.7 332.2C1813.3 330.3 1706.7 326.7 1600 339.2C1493.3 351.7 1386.7 380.3 1280 371.3C1173.3 362.3 1066.7 315.7 960 287C853.3 258.3 746.7 247.7 640 263.8C533.3 280 426.7 323 320 339.2C213.3 355.3 106.7 344.7 53.3 339.3L0 334Z" fill="#548fff"></path><path d="M0 627L53.3 609C106.7 591 213.3 555 320 517.3C426.7 479.7 533.3 440.3 640 400.8C746.7 361.3 853.3 321.7 960 332.3C1066.7 343 1173.3 404 1280 423.8C1386.7 443.7 1493.3 422.3 1600 426C1706.7 429.7 1813.3 458.3 1866.7 472.7L1920 487L1920 388L1866.7 382.5C1813.3 377 1706.7 366 1600 371.3C1493.3 376.7 1386.7 398.3 1280 385.8C1173.3 373.3 1066.7 326.7 960 314.2C853.3 301.7 746.7 323.3 640 343.2C533.3 363 426.7 381 320 400.7C213.3 420.3 106.7 441.7 53.3 452.3L0 463Z" fill="#6198ff"></path><path d="M0 638L53.3 639.8C106.7 641.7 213.3 645.3 320 623.8C426.7 602.3 533.3 555.7 640 503.5C746.7 451.3 853.3 393.7 960 409.8C1066.7 426 1173.3 516 1280 570C1386.7 624 1493.3 642 1600 634.8C1706.7 627.7 1813.3 595.3 1866.7 579.2L1920 563L1920 485L1866.7 470.7C1813.3 456.3 1706.7 427.7 1600 424C1493.3 420.3 1386.7 441.7 1280 421.8C1173.3 402 1066.7 341 960 330.3C853.3 319.7 746.7 359.3 640 398.8C533.3 438.3 426.7 477.7 320 515.3C213.3 553 106.7 589 53.3 607L0 625Z" fill="#6198ff"></path><path d="M0 930L53.3 917.3C106.7 904.7 213.3 879.3 320 845.2C426.7 811 533.3 768 640 766.2C746.7 764.3 853.3 803.7 960 843.2C1066.7 882.7 1173.3 922.3 1280 935C1386.7 947.7 1493.3 933.3 1600 901C1706.7 868.7 1813.3 818.3 1866.7 793.2L1920 768L1920 561L1866.7 577.2C1813.3 593.3 1706.7 625.7 1600 632.8C1493.3 640 1386.7 622 1280 568C1173.3 514 1066.7 424 960 407.8C853.3 391.7 746.7 449.3 640 501.5C533.3 553.7 426.7 600.3 320 621.8C213.3 643.3 106.7 639.7 53.3 637.8L0 636Z" fill="#548fff"></path><path d="M0 1059L53.3 1033.8C106.7 1008.7 213.3 958.3 320 944C426.7 929.7 533.3 951.3 640 951.3C746.7 951.3 853.3 929.7 960 929.7C1066.7 929.7 1173.3 951.3 1280 971.2C1386.7 991 1493.3 1009 1600 1007.2C1706.7 1005.3 1813.3 983.7 1866.7 972.8L1920 962L1920 766L1866.7 791.2C1813.3 816.3 1706.7 866.7 1600 899C1493.3 931.3 1386.7 945.7 1280 933C1173.3 920.3 1066.7 880.7 960 841.2C853.3 801.7 746.7 762.3 640 764.2C533.3 766 426.7 809 320 843.2C213.3 877.3 106.7 902.7 53.3 915.3L0 928Z" fill="#3079ff"></path><path d="M0 1081L53.3 1068.3C106.7 1055.7 213.3 1030.3 320 1021.3C426.7 1012.3 533.3 1019.7 640 1016.2C746.7 1012.7 853.3 998.3 960 989.3C1066.7 980.3 1173.3 976.7 1280 983.8C1386.7 991 1493.3 1009 1600 1021.7C1706.7 1034.3 1813.3 1041.7 1866.7 1045.3L1920 1049L1920 960L1866.7 970.8C1813.3 981.7 1706.7 1003.3 1600 1005.2C1493.3 1007 1386.7 989 1280 969.2C1173.3 949.3 1066.7 927.7 960 927.7C853.3 927.7 746.7 949.3 640 949.3C533.3 949.3 426.7 927.7 320 942C213.3 956.3 106.7 1006.7 53.3 1031.8L0 1057Z" fill="#0064f9"></path><path d="M0 1081L53.3 1068.3C106.7 1055.7 213.3 1030.3 320 1026.7C426.7 1023 533.3 1041 640 1037.5C746.7 1034 853.3 1009 960 1001.8C1066.7 994.7 1173.3 1005.3 1280 1019.7C1386.7 1034 1493.3 1052 1600 1062.8C1706.7 1073.7 1813.3 1077.3 1866.7 1079.2L1920 1081L1920 1047L1866.7 1043.3C1813.3 1039.7 1706.7 1032.3 1600 1019.7C1493.3 1007 1386.7 989 1280 981.8C1173.3 974.7 1066.7 978.3 960 987.3C853.3 996.3 746.7 1010.7 640 1014.2C533.3 1017.7 426.7 1010.3 320 1019.3C213.3 1028.3 106.7 1053.7 53.3 1066.3L0 1079Z" fill="#0058d9"></path><path d="M0 1081L53.3 1081C106.7 1081 213.3 1081 320 1081C426.7 1081 533.3 1081 640 1081C746.7 1081 853.3 1081 960 1081C1066.7 1081 1173.3 1081 1280 1081C1386.7 1081 1493.3 1081 1600 1081C1706.7 1081 1813.3 1081 1866.7 1081L1920 1081L1920 1079L1866.7 1077.2C1813.3 1075.3 1706.7 1071.7 1600 1060.8C1493.3 1050 1386.7 1032 1280 1017.7C1173.3 1003.3 1066.7 992.7 960 999.8C853.3 1007 746.7 1032 640 1035.5C533.3 1039 426.7 1021 320 1024.7C213.3 1028.3 106.7 1053.7 53.3 1066.3L0 1079Z" fill="#004cbb"></path></svg>